<svg xmlns="http://www.w3.org/2000/svg" width="20" height="18" viewBox="0 0 20 18">
    <g id="Group_105" data-name="Group 105" transform="translate(-1299 1616)">
        <path id="Union_3" data-name="Union 3" d="M12.17,4H1A1,1,0,1,1,1,2H12.17a3,3,0,0,1,5.659,0H19a1,1,0,0,1,0,2H17.829A3,3,0,0,1,12.17,4Z" transform="translate(1299 -1616)" fill="#fff"/>
        <g id="Group_103" data-name="Group 103" transform="translate(0 -2)">
            <path id="Union_2" data-name="Union 2" d="M2.171,6H1A1,1,0,0,1,1,4H2.171A3,3,0,0,1,7.829,4H19a1,1,0,0,1,0,2H7.829A3,3,0,0,1,2.171,6Z" transform="translate(1299 -1610)" fill="#fff"/>
        </g>
        <g id="Group_104" data-name="Group 104" transform="translate(0 4)">
            <path id="Union_1" data-name="Union 1" d="M12.17,0H1A1,1,0,0,1,0-1,1,1,0,0,1,1-2H12.17A3,3,0,0,1,15-4a3,3,0,0,1,2.829,2H19a1,1,0,0,1,1,1,1,1,0,0,1-1,1H17.829A3,3,0,0,1,15,2,3,3,0,0,1,12.17,0Z" transform="translate(1299 -1604)" fill="#fff"/>
        </g>
    </g>
</svg>
