<svg xmlns="http://www.w3.org/2000/svg" width="18.994" height="18.994" viewBox="0 0 18.994 18.994">
    <path id="_002-pencil" data-name="002-pencil"
          d="M.743,19a.742.742,0,0,1-.729-.881l.645-3.4v-.007a8.347,8.347,0,0,1,2.293-4.283l6.768-6.69A.742.742,0,1,1,10.766,4.79L4,11.478a6.867,6.867,0,0,0-1.882,3.516l-.443,2.335,2.351-.43a6.868,6.868,0,0,0,3.519-1.886l5.578-5.507a.99.99,0,0,0,.006-1.389l-1.337-1.37a.742.742,0,0,1,1.062-1.037l1.335,1.368a2.479,2.479,0,0,1-.022,3.481L8.589,16.067A8.348,8.348,0,0,1,4.31,18.356l-.012,0-3.422.625A.748.748,0,0,1,.743,19Zm5.164-4.114a.742.742,0,0,0,0-1.05l-.742-.742a.742.742,0,0,0-1.05,1.05l.742.742a.742.742,0,0,0,1.05,0ZM17.183,7.538l.668-.753A3.987,3.987,0,0,0,12.2,1.162c-.011.011-.5.567-.5.567a.742.742,0,0,0,1.112.984l.456-.516a2.5,2.5,0,0,1,3.525,3.555c-.01.01-.713.8-.713.8a.742.742,0,0,0,1.111.985Z" transform="translate(-0.001 -0.002)" fill="#000000"/>
</svg>
