<svg id="_004-download" data-name="004-download" xmlns="http://www.w3.org/2000/svg" width="18.994" height="18.994" viewBox="0 0 18.994 18.994">
    <g id="Group_85" data-name="Group 85" transform="translate(6.332)">
        <g id="Group_84" data-name="Group 84">
            <path id="Path_38" data-name="Path 38" d="M176.922,9.143a.792.792,0,0,0-.708-.438H174.63V.791a.791.791,0,0,0-1.583,0V8.706h-1.583a.791.791,0,0,0-.633,1.266l2.374,3.166c.01.013.026.018.037.031a.772.772,0,0,0,.183.153.816.816,0,0,0,.081.055.743.743,0,0,0,.664,0,.805.805,0,0,0,.081-.055.773.773,0,0,0,.183-.153c.01-.013.027-.017.037-.031l2.374-3.166A.791.791,0,0,0,176.922,9.143Z" transform="translate(-170.674)" fill="#fff"/>
        </g>
    </g>
    <g id="Group_87" data-name="Group 87" transform="translate(0 11.871)">
        <g id="Group_86" data-name="Group 86">
            <path id="Path_39" data-name="Path 39" d="M18.2,320a.791.791,0,0,0-.791.791v2.374a2.377,2.377,0,0,1-2.374,2.374H3.957a2.377,2.377,0,0,1-2.374-2.374v-2.374a.791.791,0,0,0-1.583,0v2.374a3.962,3.962,0,0,0,3.957,3.957h11.08a3.962,3.962,0,0,0,3.957-3.957v-2.374A.791.791,0,0,0,18.2,320Z" transform="translate(0 -320)" fill="#fff"/>
        </g>
    </g>
</svg>
