<svg xmlns="http://www.w3.org/2000/svg" width="18.552" height="13.624" viewBox="0 0 18.552 13.624">
    <path id="_003-credit-card" data-name="003-credit-card" d="M14.929,8.411a.725.725,0,0,1,.725.725v.87a.725.725,0,0,1-.725.725H13.262a.725.725,0,0,1-.725-.725v-.87a.725.725,0,0,1,.725-.725Zm2.174-1.3V4.932H1.449v5.793A1.451,1.451,0,0,0,2.9,12.175H15.653A1.451,1.451,0,0,0,17.1,10.725a.725.725,0,1,1,1.449,0,2.9,2.9,0,0,1-2.9,2.9H2.9a2.9,2.9,0,0,1-2.9-2.9V2.9A2.9,2.9,0,0,1,2.9,0H15.653a2.9,2.9,0,0,1,2.9,2.9V7.106a.725.725,0,1,1-1.449,0Zm0-3.623V2.9a1.451,1.451,0,0,0-1.449-1.449H2.9A1.451,1.451,0,0,0,1.449,2.9v.584ZM3.623,6.382a.725.725,0,0,0,0,1.449H9.6a.725.725,0,0,0,0-1.449Zm0,0" fill="#fff"/>
</svg>
