<svg id="NgmrRM.tif" xmlns="http://www.w3.org/2000/svg" width="35" height="35.02" viewBox="0 0 35 35.02">
    <g id="Group_55" data-name="Group 55">
        <g id="Group_54" data-name="Group 54" transform="translate(0 0)">
            <path id="Path_12" data-name="Path 12" d="M-3029.5,718.911c-.712-.144-1.435-.247-2.133-.441a20.659,20.659,0,0,1-5.905-2.8,35.87,35.87,0,0,1-11.041-11.463,17.942,17.942,0,0,1-2.385-5.932,7.547,7.547,0,0,1,.089-3.623,3.985,3.985,0,0,1,2.2-2.652c1.049-.472,2.1-.937,3.179-1.338a2.656,2.656,0,0,1,3.193,1.126c.866,1.434,1.709,2.883,2.511,4.354a2.739,2.739,0,0,1-.968,3.635.8.8,0,0,1-.116.072,1.8,1.8,0,0,0-.564,2.933,37.885,37.885,0,0,0,6.622,6.555,1.7,1.7,0,0,0,2.65-.523,2.8,2.8,0,0,1,4.119-1.079q1.913,1.1,3.819,2.205a2.751,2.751,0,0,1,1.257,3.575c-.371.931-.768,1.852-1.169,2.77a4.329,4.329,0,0,1-3.62,2.56c-.1.015-.2.045-.3.067Zm-19.48-22.4c.051.435.078.823.143,1.2a15.765,15.765,0,0,0,2.19,5.457,33.742,33.742,0,0,0,9.514,10.129,19.807,19.807,0,0,0,6.176,3.087,6.7,6.7,0,0,0,3.007.264,2.124,2.124,0,0,0,1.765-1.184q.61-1.411,1.2-2.831a.544.544,0,0,0-.253-.735q-2.054-1.195-4.117-2.374a.573.573,0,0,0-.825.226c-.068.1-.127.216-.193.323a3.871,3.871,0,0,1-5.66,1.094,37.1,37.1,0,0,1-7.359-7.355,3.627,3.627,0,0,1-.762-1.948,3.828,3.828,0,0,1,2.015-3.823c.522-.308.6-.565.294-1.09q-1.11-1.926-2.225-3.849c-.227-.391-.458-.492-.848-.332-.9.367-1.781.758-2.676,1.127a2,2,0,0,0-1.206,1.475C-3048.9,695.757-3048.929,696.157-3048.983,696.509Z" transform="translate(3051.145 -683.891)" fill="#fff"/>
            <path id="Path_13" data-name="Path 13" d="M-2874.98,608.529c-.113.717-.191,1.442-.344,2.151a13.924,13.924,0,0,1-3.769,6.935,1.115,1.115,0,0,1-1.591.089,1.111,1.111,0,0,1,.028-1.617,11.722,11.722,0,0,0,3.392-7.046,11.724,11.724,0,0,0-3.516-10.029,12.031,12.031,0,0,0-16.855-.116,1.781,1.781,0,0,1-.745.44,1.015,1.015,0,0,1-1.144-.552,1.091,1.091,0,0,1,.208-1.292,13.368,13.368,0,0,1,5.3-3.345,13.914,13.914,0,0,1,13.7,2.353,13.762,13.762,0,0,1,5.207,9.239q.065.47.128.941Z" transform="translate(2909.98 -593.307)" fill="#fff"/>
            <path id="Path_14" data-name="Path 14" d="M-2851.083,725.678c1,0,2.007-.009,3.01,0a1.1,1.1,0,0,1,1.092,1.439,1.062,1.062,0,0,1-1,.745c-1.825.006-3.651.012-5.476,0a1.076,1.076,0,0,1-.936-1.6,7.8,7.8,0,0,1,2.076-2.516c.738-.629,1.5-1.228,2.249-1.844a1.582,1.582,0,0,0,.653-1.187,1.2,1.2,0,0,0-.892-1.36,2.831,2.831,0,0,0-1.2-.036.986.986,0,0,0-.813,1.074,2.545,2.545,0,0,1-.034.577,1.075,1.075,0,0,1-1.135.8,1.08,1.08,0,0,1-1-1,3.228,3.228,0,0,1,.992-2.8,3.831,3.831,0,0,1,6.053,1.347,3.519,3.519,0,0,1-.88,3.936c-.665.637-1.412,1.19-2.121,1.781-.224.187-.446.378-.668.567Z" transform="translate(2867.978 -708.555)" fill="#fff"/>
            <path id="Path_15" data-name="Path 15" d="M-2741.767,723.5c.892.161,1.275.5,1.294,1.109s-.342.956-1.3,1.174c0,.387.016.785,0,1.181a1.092,1.092,0,0,1-.833,1.047,1.059,1.059,0,0,1-1.179-.491,1.619,1.619,0,0,1-.165-.649c-.027-.361-.007-.725-.007-1.139h-.431c-1.209,0-2.419.009-3.628,0a1.074,1.074,0,0,1-1.118-1.355,1.482,1.482,0,0,1,.293-.531q2.525-3.087,5.063-6.162a1.087,1.087,0,0,1,1.271-.411,1.091,1.091,0,0,1,.738,1.117c.007,1.563,0,3.127,0,4.691Zm-2.224.018v-2.134l-1.749,2.134Z" transform="translate(2769.841 -708.722)" fill="#fff"/>
        </g>
    </g>
</svg>
