<svg width="40" height="40" xmlns="http://www.w3.org/2000/svg">
 <g>
  <title>Layer 1</title>
  <g>
   <line stroke="#B7B7B7" y2="40" x2="0" y1="0" x1="0"/>
   <path fill="#1D1D1D" d="m31.922,11.5625l-1.797,0l0,-0.9375c0,-0.3452 -0.28,-0.625 -0.625,-0.625c-0.345,0 -0.625,0.2798 -0.625,0.625l0,0.9375l-8.75,0l0,-0.9375c0,-0.3452 -0.28,-0.625 -0.625,-0.625c-0.345,0 -0.625,0.2798 -0.625,0.625l0,0.9375l-1.797,0c-1.421,0 -2.578,1.1565 -2.578,2.5781l0,13.2813c0,1.4216 1.157,2.5781 2.578,2.5781l14.844,0c1.421,0 2.578,-1.1565 2.578,-2.5781l0,-13.2813c0,-1.4216 -1.157,-2.5781 -2.578,-2.5781zm-14.844,1.25l1.797,0l0,0.625c0,0.3452 0.28,0.625 0.625,0.625c0.345,0 0.625,-0.2798 0.625,-0.625l0,-0.625l8.75,0l0,0.625c0,0.3452 0.28,0.625 0.625,0.625c0.345,0 0.625,-0.2798 0.625,-0.625l0,-0.625l1.797,0c0.732,0 1.328,0.5958 1.328,1.3281l0,1.4844l-17.5,0l0,-1.4844c0,-0.7323 0.596,-1.3281 1.328,-1.3281zm14.844,15.9375l-14.844,0c-0.732,0 -1.328,-0.5958 -1.328,-1.3281l0,-10.5469l17.5,0l0,10.5469c0,0.7323 -0.596,1.3281 -1.328,1.3281z"/>
  </g>
 </g>
</svg>