<svg width="55" height="55" viewBox="0 0 50 50" fill="none" xmlns="http://www.w3.org/2000/svg">
    <path d="M0 5C0 2.23858 2.23858 0 5 0H50V50H5C2.23858 50 0 47.7614 0 45V5Z" fill="#B7B7B7"/>
    <path d="M23.8527 17.2889C23.8527 16.7909 23.8514 16.3032 23.853 15.8153C23.8547 15.3289 24.1751 14.9953 24.6327 14.9998C25.0715 15.0041 25.3894 15.3441 25.3909 15.8145C25.3925 16.3024 25.3913 16.7904 25.3913 17.2843C25.6961 17.341 25.9959 17.3785 26.2858 17.4536C27.1284 17.6752 27.8743 18.1687 28.4076 18.8577C28.9409 19.5467 29.2317 20.3925 29.2349 21.2638C29.2356 21.4881 29.2387 21.7125 29.234 21.9367C29.2335 22.0369 29.2131 22.136 29.174 22.2283C29.135 22.3206 29.078 22.4042 29.0064 22.4743C28.9349 22.5444 28.8501 22.5997 28.757 22.6368C28.664 22.6739 28.5645 22.6923 28.4643 22.6907C28.2623 22.6905 28.0685 22.611 27.9246 22.4693C27.7807 22.3275 27.6982 22.135 27.6949 21.933C27.6792 21.5343 27.702 21.1248 27.6179 20.7398C27.3832 19.6688 26.5081 18.9162 25.4067 18.8627C24.7393 18.8303 24.0519 18.8218 23.4003 18.9445C22.3487 19.1429 21.6507 20.0358 21.551 21.1271C21.4618 22.1051 22.0563 23.1104 23.008 23.5101C24.2229 24.0205 25.4521 24.4967 26.6739 24.9909C28.3621 25.6738 29.3259 27.1917 29.2331 29.0158C29.1421 30.8055 27.59 32.4473 25.8013 32.6469C25.6742 32.6611 25.5477 32.6817 25.3892 32.7038C25.3892 33.2105 25.3928 33.7209 25.3881 34.2313C25.3879 34.4327 25.3086 34.626 25.1673 34.7694C25.026 34.9129 24.834 34.9952 24.6326 34.9984C24.4312 35.0017 24.2366 34.9258 24.0907 34.787C23.9448 34.6481 23.8593 34.4576 23.8525 34.2563C23.8462 33.7444 23.851 33.2324 23.851 32.7146C23.5455 32.6579 23.2456 32.6208 22.9557 32.5453C22.1131 32.3236 21.3673 31.8299 20.8341 31.1409C20.3009 30.4518 20.0102 29.606 20.0071 28.7347C20.0065 28.5104 20.0034 28.286 20.0079 28.0618C20.0082 27.9616 20.0284 27.8624 20.0673 27.7701C20.1063 27.6778 20.1632 27.5941 20.2348 27.524C20.3064 27.4539 20.3912 27.3988 20.4843 27.3618C20.5774 27.3248 20.677 27.3067 20.7772 27.3085C20.9792 27.3084 21.1732 27.3878 21.3172 27.5295C21.4612 27.6711 21.5437 27.8638 21.5469 28.0658C21.5628 28.4645 21.5403 28.8737 21.6237 29.2591C21.8434 30.2753 22.6227 30.9887 23.6697 31.1128C24.3988 31.1992 25.1433 31.2355 25.8672 31.0617C26.8901 30.8161 27.5909 29.954 27.6904 28.8713C27.7793 27.9033 27.1904 26.8906 26.2561 26.4971C25.0561 25.9917 23.8412 25.5217 22.6317 25.0389C21.2776 24.4984 20.4137 23.5329 20.0922 22.1026C19.6217 20.0096 21.0013 17.8662 23.1112 17.4092C23.3452 17.3593 23.5842 17.332 23.8527 17.2889Z" fill="#1D1D1D"/>
</svg>
