<svg xmlns="http://www.w3.org/2000/svg" viewBox="0 0 53.58 42.64" height="11" width="15"><defs><style>.cls-1{fill:#555;}</style></defs><title>Asset 1homepage</title><g id="Layer_2" data-name="Layer 2"><g id="Layer_1-2" data-name="Layer 1"><path class="cls-1" d="M53.34,22.27l-2.06,2.46a1.13,1.13,0,0,1-.7.37h-.1a1,1,0,0,1-.7-.23l-23-19.18-23,19.18a1.24,1.24,0,0,1-.8.23,1.13,1.13,0,0,1-.7-.37L.24,22.27A1.06,1.06,0,0,1,0,21.49a1,1,0,0,1,.36-.72L24.26.86a4.13,4.13,0,0,1,5.05,0l8.11,6.78V1.16a1,1,0,0,1,.3-.77,1,1,0,0,1,.76-.3h6.38a1,1,0,0,1,.76.3,1,1,0,0,1,.3.77V14.72l7.28,6a1,1,0,0,1,.37.72A1.08,1.08,0,0,1,53.34,22.27Zm-7.41,2.29v16a2.16,2.16,0,0,1-2.13,2.13H31V29.88H22.54V42.64H9.77a2.16,2.16,0,0,1-2.13-2.13v-16a.41.41,0,0,1,0-.1.43.43,0,0,0,0-.1L26.79,8.61,45.9,24.36A.48.48,0,0,1,45.93,24.56Z"/></g></g></svg>
